{"glyphs":{"0":{"ha":1349,"x_min":0,"x_max":0,"o":"m 699 1208 l 904 958 l 911 738 l 774 322 l 508 365 l 428 929 z m 657 1460 l 138 1293 l 28 688 l 263 46 l 754 -3 l 1139 225 l 1321 876 l 1022 1360 z "},"1":{"ha":618,"x_min":0,"x_max":0,"o":"m 571 1296 l 310 1389 l 14 1346 l 42 1038 l 228 1092 l 168 -3 l 590 44 z "},"2":{"ha":1165,"x_min":0,"x_max":0,"o":"m 992 1292 l 503 1429 l 61 1165 l 169 832 l 489 1108 l 706 967 l 21 225 l 204 -3 l 1083 28 l 1138 375 l 461 271 l 1049 789 z "},"3":{"ha":1143,"x_min":0,"x_max":0,"o":"m 993 1292 l 504 1429 l 21 1276 l 129 943 l 490 1108 l 718 1056 l 578 861 l 199 764 l 199 600 l 719 494 l 563 261 l 168 397 l 93 72 l 763 -43 l 1115 226 l 1090 576 l 799 728 l 1050 997 z "},"4":{"ha":1007,"x_min":0,"x_max":0,"o":"m 960 1421 l 631 1383 l 593 664 l 382 675 l 465 1383 l 43 1336 l 21 488 l 579 403 l 557 -3 l 979 44 z "},"5":{"ha":1064,"x_min":0,"x_max":0,"o":"m 971 1082 l 960 1375 b 567 1389 829 1379 697 1389 b 410 1375 506 1389 471 1381 l 96 1347 l 126 600 l 647 494 l 490 261 l 96 397 l 21 72 l 690 -43 l 1043 226 l 1018 576 l 753 838 l 410 811 l 378 1129 z "},"6":{"ha":1128,"x_min":0,"x_max":0,"o":"m 383 613 l 583 624 l 736 494 l 551 261 l 351 357 z m 589 -43 l 1083 225 l 1107 576 l 842 838 l 443 811 l 403 772 l 449 1136 l 1035 1054 l 1010 1376 l 293 1411 l 75 1221 l 21 175 z "},"7":{"ha":911,"x_min":0,"x_max":0,"o":"m 890 1296 b 601 1389 871 1303 603 1389 b 14 1374 406 1389 210 1379 l 42 1065 l 519 1092 l 168 -3 l 618 44 z "},"8":{"ha":1290,"x_min":0,"x_max":0,"o":"m 828 324 l 549 281 l 425 404 l 432 611 l 624 667 l 839 610 z m 654 1181 l 818 1125 l 825 988 l 729 864 l 464 907 l 453 1124 z m 569 1435 l 163 1321 l 21 1039 l 272 781 l 63 694 l 38 296 l 272 22 l 968 0 l 1269 304 l 1178 650 l 943 781 l 1178 972 l 1086 1333 z "},"9":{"ha":1128,"x_min":0,"x_max":0,"o":"m 454 1143 l 776 1039 l 740 750 l 532 694 l 390 831 z m 835 -15 l 1107 226 l 1063 1238 l 539 1439 l 44 1171 l 21 819 l 328 471 l 715 549 l 679 260 l 38 342 l 63 19 z "},"\u0000":{"ha":0,"x_min":0,"x_max":0,"o":""},"\r":{"ha":347,"x_min":0,"x_max":0,"o":""}," ":{"ha":361,"x_min":0,"x_max":0,"o":""},"!":{"ha":517,"x_min":0,"x_max":0,"o":"m 117 501 l 390 501 l 488 1431 l 33 1431 z m 74 4 l 433 1 l 428 347 l 68 350 z "},"\"":{"ha":683,"x_min":0,"x_max":0,"o":"m 28 1471 l 57 850 l 275 851 l 315 1471 z m 368 1471 l 397 850 l 615 851 l 656 1471 z "},"#":{"ha":1304,"x_min":0,"x_max":0,"o":"m 535 907 l 783 913 l 721 483 l 476 481 z m 397 -104 l 443 233 l 683 228 l 635 -108 l 911 -104 l 956 221 l 1221 215 l 1193 489 l 992 486 l 1050 918 l 1276 924 l 1263 1156 l 1082 1158 l 1115 1403 l 861 1443 l 819 1161 l 569 1164 l 601 1403 l 347 1443 l 307 1167 l 111 1169 l 83 896 l 268 900 l 207 476 l 42 475 l 28 243 l 172 240 l 121 -108 z "},"$":{"ha":1222,"x_min":0,"x_max":0,"o":"m 779 544 l 846 532 l 906 343 l 825 258 l 788 263 z m 403 1083 l 493 1083 l 490 886 l 358 903 z m 804 -347 l 794 -22 l 1118 14 b 1194 343 1124 39 1194 338 b 1183 496 1194 403 1188 436 l 1163 803 l 783 850 l 789 1069 l 1056 999 l 1147 1332 l 799 1383 l 804 1583 l 501 1583 l 499 1383 l 125 1213 l 111 661 l 489 594 l 493 290 b 117 446 486 289 147 433 l 28 71 l 488 -56 l 497 -54 l 501 -347 z "},"%":{"ha":1897,"x_min":0,"x_max":0,"o":"m 1478 632 l 1607 493 l 1613 371 l 1525 139 l 1358 163 l 1307 476 z m 450 1285 l 579 1146 l 585 1024 l 497 792 l 331 815 l 279 1129 z m 1451 772 l 1125 679 l 1056 343 l 1204 -15 l 1514 -42 l 1756 86 l 1869 447 l 1681 715 z m 542 -201 l 1510 1417 l 1269 1499 l 251 -108 z m 424 1425 l 97 1332 l 28 996 l 176 638 l 486 611 l 728 739 l 842 1100 l 653 1368 z "},"&":{"ha":1239,"x_min":0,"x_max":0,"o":"m 331 556 l 467 629 l 625 379 l 350 210 z m 411 1157 l 524 1258 l 629 1160 l 528 986 z m 1035 335 l 1201 479 l 1044 740 l 844 565 l 674 772 b 656 800 667 781 661 790 l 806 969 l 875 1231 l 674 1458 l 183 1389 l 139 1060 l 324 828 l 74 742 l 35 83 l 360 -69 l 779 136 l 865 0 l 1204 129 z "},"'":{"ha":342,"x_min":0,"x_max":0,"o":"m 28 1471 l 57 850 l 275 851 l 314 1471 z "},"(":{"ha":636,"x_min":0,"x_max":0,"o":"m 361 -347 l 608 -347 l 507 -78 b 457 57 488 -25 469 3 l 419 399 b 400 569 411 465 400 503 b 425 704 400 622 415 651 l 475 972 b 519 1111 489 1028 503 1057 l 608 1389 l 361 1389 l 168 1121 b 46 797 165 1117 47 803 b 28 556 46 796 28 564 b 43 399 28 494 38 460 l 72 83 z "},")":{"ha":636,"x_min":0,"x_max":0,"o":"m 275 -347 l 564 83 l 593 399 b 608 556 600 460 608 494 b 590 797 608 564 590 796 b 468 1121 589 803 471 1117 l 275 1389 l 28 1389 l 117 1111 b 161 972 135 1057 147 1028 l 211 704 b 236 569 221 651 236 622 b 217 399 236 503 225 465 l 179 57 b 129 -78 167 3 149 -25 l 28 -347 z "},"*":{"ha":903,"x_min":0,"x_max":0,"o":"m 785 1404 l 550 1267 l 558 1518 l 336 1494 l 340 1274 l 118 1404 l 28 1217 l 260 1096 l 28 960 l 129 826 l 347 940 l 351 707 l 529 694 l 539 950 l 774 826 l 875 960 l 643 1096 l 875 1217 z "},"+":{"ha":944,"x_min":0,"x_max":0,"o":"m 28 579 l 351 585 l 336 243 l 610 243 l 604 589 l 917 593 l 917 811 l 601 826 l 596 1161 l 378 1161 l 363 838 l 28 853 z "},",":{"ha":449,"x_min":0,"x_max":0,"o":"m 28 51 l 143 51 l 67 -294 l 197 -262 l 379 51 l 421 344 l 56 386 z "},"-":{"ha":653,"x_min":0,"x_max":0,"o":"m 28 579 l 625 593 l 625 839 l 28 853 z "},".":{"ha":474,"x_min":0,"x_max":0,"o":"m 92 -8 l 446 50 l 382 390 l 28 332 z "},"/":{"ha":925,"x_min":0,"x_max":0,"o":"m 56 -108 l 332 -201 l 897 1417 l 643 1499 z "},":":{"ha":474,"x_min":0,"x_max":0,"o":"m 92 839 l 446 897 l 382 1238 l 28 1179 z m 92 -8 l 446 50 l 382 390 l 28 332 z "},";":{"ha":474,"x_min":0,"x_max":0,"o":"m 92 839 l 446 897 l 382 1238 l 28 1179 z m 28 51 l 143 51 l 67 -294 l 197 -262 l 379 51 l 421 344 l 56 386 z "},"<":{"ha":746,"x_min":0,"x_max":0,"o":"m 28 822 l 28 606 l 649 175 l 704 475 l 235 717 l 704 967 l 607 1211 z "},"=":{"ha":965,"x_min":0,"x_max":0,"o":"m 32 688 l 906 715 l 892 947 l 60 961 z m 906 313 l 878 586 l 46 572 l 32 340 z "},">":{"ha":746,"x_min":0,"x_max":0,"o":"m 718 822 l 139 1211 l 42 967 l 511 717 l 42 475 l 97 175 l 718 606 z "},"?":{"ha":1039,"x_min":0,"x_max":0,"o":"m 910 1407 l 428 1471 l 28 1318 l 136 929 l 414 1163 l 617 1178 l 614 911 l 313 779 l 285 463 l 613 463 l 614 571 l 850 681 l 1011 986 z m 232 26 l 579 -67 l 661 269 l 314 363 z "},"@":{"ha":1601,"x_min":0,"x_max":0,"o":"m 779 814 l 922 844 l 879 563 l 700 393 z m 1274 71 l 1574 406 l 1497 1165 l 1042 1472 l 654 1475 l 140 1085 l 28 460 l 140 31 l 654 -329 l 1107 -207 l 1068 42 l 654 -67 l 293 401 l 474 1019 l 842 1221 l 1251 1051 l 1246 489 l 1131 347 l 1051 376 l 1117 1014 l 915 1090 l 592 944 l 460 344 l 651 132 l 836 268 l 825 197 z "},"A":{"ha":1494,"x_min":0,"x_max":0,"o":"m 765 1103 l 879 596 l 632 608 z m 464 -14 l 574 390 l 939 331 l 1004 42 l 1474 86 l 1032 1328 b 806 1375 964 1342 872 1367 b 550 1383 731 1383 628 1381 l 21 128 z "},"B":{"ha":1264,"x_min":0,"x_max":0,"o":"m 458 594 l 792 588 l 888 367 b 708 300 843 350 750 310 b 469 276 657 289 528 282 z m 442 1103 l 689 1088 l 767 972 l 739 831 l 453 757 z m 331 10 b 478 0 388 6 419 0 l 819 0 b 1193 85 828 0 1164 78 l 1236 561 l 976 749 l 1151 901 l 1018 1290 b 585 1389 983 1299 593 1389 b 78 1388 415 1389 247 1388 l 35 28 z "},"C":{"ha":1207,"x_min":0,"x_max":0,"o":"m 1060 999 l 1151 1332 l 635 1389 l 35 1118 l 56 232 l 635 -62 l 1179 163 l 1042 508 l 740 343 l 438 543 l 508 972 l 735 1075 z "},"D":{"ha":1293,"x_min":0,"x_max":0,"o":"m 615 1076 l 844 893 l 872 535 l 660 329 l 454 315 l 415 1071 z m 49 665 b 35 304 43 525 35 446 b 114 0 35 301 108 21 l 733 0 b 1049 114 735 0 1028 106 l 1265 638 l 1119 1178 l 740 1389 l 78 1389 z "},"E":{"ha":1038,"x_min":0,"x_max":0,"o":"m 35 -43 l 1010 -1 l 940 360 l 468 263 l 457 558 l 807 578 l 746 874 l 450 815 l 439 1111 l 943 1056 l 999 1389 l 65 1375 z "},"F":{"ha":1100,"x_min":0,"x_max":0,"o":"m 96 -28 l 525 0 l 431 389 l 931 358 l 911 732 l 447 663 l 563 1099 l 1003 1013 l 1072 1374 l 181 1389 b 181 1385 181 1386 181 1386 l 74 839 b 21 567 53 733 21 675 b 46 368 21 489 36 446 z "},"G":{"ha":1454,"x_min":0,"x_max":0,"o":"m 1233 1040 l 1286 1360 l 544 1403 l 28 1146 l 76 246 l 529 -28 l 1072 6 l 1426 404 l 1281 844 l 657 881 l 697 538 l 1010 565 l 1019 447 l 732 265 l 467 471 l 514 1033 b 728 1075 535 1038 718 1075 b 896 1064 793 1075 831 1068 z "},"H":{"ha":1203,"x_min":0,"x_max":0,"o":"m 432 38 l 444 389 l 761 406 l 801 -42 l 1168 38 l 1103 1375 l 674 1375 l 738 663 l 453 617 l 478 1306 l 35 1375 l 65 -42 z "},"I":{"ha":513,"x_min":0,"x_max":0,"o":"m 432 1296 l 65 1375 l 35 -42 l 478 28 z "},"J":{"ha":953,"x_min":0,"x_max":0,"o":"m 443 1389 l 496 303 l 83 538 l 28 125 l 482 -25 l 867 97 l 925 1319 z "},"K":{"ha":1286,"x_min":0,"x_max":0,"o":"m 28 0 l 468 69 l 461 432 l 507 479 l 800 0 l 1258 99 l 719 693 l 1258 1349 l 800 1389 l 450 914 l 440 1389 l 97 1389 z "},"L":{"ha":918,"x_min":0,"x_max":0,"o":"m 49 1389 l 35 42 l 890 0 l 867 431 l 410 308 l 447 1347 z "},"M":{"ha":1914,"x_min":0,"x_max":0,"o":"m 35 15 l 521 -14 l 631 975 l 811 0 l 1133 63 l 1354 903 l 1376 0 l 1879 83 l 1681 1283 l 1257 1389 l 989 379 l 829 1336 l 296 1390 z "},"N":{"ha":1263,"x_min":0,"x_max":0,"o":"m 564 1347 l 65 1375 l 35 -42 l 478 28 l 442 863 l 718 -22 l 715 -28 l 719 -28 l 719 -29 l 721 -28 l 1228 42 l 1182 1393 l 788 1347 l 851 324 z "},"O":{"ha":1599,"x_min":0,"x_max":0,"o":"m 522 999 l 1024 1042 l 1133 807 l 1126 586 l 782 336 l 511 615 z m 740 1460 l 207 1251 l 28 618 l 346 46 l 949 -3 l 1472 225 l 1571 876 l 1272 1332 z "},"P":{"ha":1189,"x_min":0,"x_max":0,"o":"m 397 1117 l 731 1101 l 797 890 l 453 635 l 453 631 z m 517 67 l 482 372 l 1117 731 l 1161 1042 l 976 1368 l 568 1390 b 364 1401 489 1394 443 1401 b 251 1388 319 1401 296 1393 l 28 1360 l 78 13 z "},"Q":{"ha":1561,"x_min":0,"x_max":0,"o":"m 861 1031 l 1089 792 l 1035 499 l 813 764 l 582 614 l 732 358 l 457 447 l 499 972 z m 703 1460 l 231 1249 l 28 621 l 308 46 l 911 -3 l 1035 -265 l 1364 -96 l 1271 181 l 1396 307 l 1533 876 l 1235 1332 z "},"R":{"ha":1363,"x_min":0,"x_max":0,"o":"m 28 28 l 471 -28 l 435 1103 l 765 1060 l 815 844 l 503 565 l 903 8 l 1335 110 l 936 610 l 1121 660 l 1246 972 l 1032 1307 l 628 1361 b 425 1389 549 1372 504 1389 b 86 1375 313 1389 199 1379 z "},"S":{"ha":1222,"x_min":0,"x_max":0,"o":"m 1056 999 l 1147 1332 l 571 1417 l 181 1213 l 167 675 l 742 528 l 767 343 l 617 258 l 124 475 l 28 71 l 488 -56 l 1021 14 l 1194 343 l 1065 817 l 525 875 l 569 1083 l 739 1083 b 1056 999 742 1083 1033 1004 z "},"T":{"ha":1058,"x_min":0,"x_max":0,"o":"m 14 1122 l 328 1101 l 303 -42 l 746 28 l 708 1075 l 989 1056 l 1044 1361 l 14 1403 z "},"U":{"ha":1267,"x_min":0,"x_max":0,"o":"m 804 1360 l 828 890 b 840 656 833 799 840 747 b 772 361 840 650 778 385 l 518 375 l 460 449 l 464 1394 l 35 1319 l 58 201 l 517 0 l 821 0 l 1169 225 l 1239 1389 z "},"V":{"ha":1522,"x_min":0,"x_max":0,"o":"m 21 1242 l 550 -14 b 806 -6 628 -11 731 -14 b 1032 42 872 3 964 28 l 1501 1339 l 1032 1383 l 765 267 l 464 1383 z "},"W":{"ha":1903,"x_min":0,"x_max":0,"o":"m 28 1361 l 289 -14 l 825 39 l 985 524 l 1253 -14 l 1676 92 l 1875 1292 l 1372 1375 l 1350 472 l 1129 840 l 807 903 l 626 400 l 517 1389 z "},"X":{"ha":1460,"x_min":0,"x_max":0,"o":"m 504 1389 l 21 1375 l 431 765 l 31 17 l 460 39 l 700 510 l 996 7 l 1439 76 l 972 769 l 1369 1346 l 915 1389 l 719 990 z "},"Y":{"ha":1439,"x_min":0,"x_max":0,"o":"m 21 1242 l 558 492 l 419 0 l 915 18 l 885 414 l 1418 1339 l 949 1383 l 738 697 l 464 1383 z "},"Z":{"ha":1179,"x_min":0,"x_max":0,"o":"m 1013 1122 l 1013 1403 l 51 1361 l 107 1056 l 574 1090 l 21 42 l 1151 3 l 1128 433 l 494 325 l 1011 1122 z "},"[":{"ha":574,"x_min":0,"x_max":0,"o":"m 42 -347 l 513 -347 l 546 -67 l 358 -78 l 339 371 b 329 594 335 458 329 507 b 339 844 329 692 335 747 l 358 1343 l 499 1343 l 513 1576 l 42 1583 b 28 639 38 1269 28 953 b 42 -347 28 311 38 -19 z "},"\\":{"ha":925,"x_min":0,"x_max":0,"o":"m 869 -108 l 282 1499 l 28 1417 l 593 -201 z "},"]":{"ha":574,"x_min":0,"x_max":0,"o":"m 532 -347 b 546 639 536 -19 546 311 b 532 1583 546 953 536 1269 l 61 1576 l 75 1343 l 215 1343 l 235 844 b 244 594 239 747 244 692 b 235 371 244 507 239 458 l 215 -78 l 28 -67 l 61 -347 z "},"^":{"ha":954,"x_min":0,"x_max":0,"o":"m 607 1407 l 390 1407 l 28 786 l 328 731 l 501 1150 l 682 731 l 926 828 z "},"_":{"ha":696,"x_min":0,"x_max":0,"o":"m -144 -36 l -144 -282 l 842 -268 l 856 -50 z "},"`":{"ha":461,"x_min":0,"x_max":0,"o":"m 433 1256 l 225 1550 l 28 1507 l 269 1256 z "},"a":{"ha":1494,"x_min":0,"x_max":0,"o":"m 765 1103 l 879 596 l 632 608 z m 464 -14 l 574 390 l 939 331 l 1004 42 l 1474 86 l 1032 1328 b 806 1375 964 1342 872 1367 b 550 1383 731 1383 628 1381 l 21 128 z "},"b":{"ha":1264,"x_min":0,"x_max":0,"o":"m 458 594 l 792 588 l 888 367 b 708 300 843 350 750 310 b 469 276 657 289 528 282 z m 442 1103 l 689 1088 l 767 972 l 739 831 l 453 757 z m 331 10 b 478 0 388 6 419 0 l 819 0 b 1193 85 828 0 1164 78 l 1236 561 l 976 749 l 1151 901 l 1018 1290 b 585 1389 983 1299 593 1389 b 78 1388 415 1389 247 1388 l 35 28 z "},"c":{"ha":1207,"x_min":0,"x_max":0,"o":"m 1060 999 l 1151 1332 l 635 1389 l 35 1118 l 56 232 l 635 -62 l 1179 163 l 1042 508 l 740 343 l 438 543 l 508 972 l 735 1075 z "},"d":{"ha":1293,"x_min":0,"x_max":0,"o":"m 615 1076 l 844 893 l 872 535 l 660 329 l 454 315 l 415 1071 z m 49 665 b 35 304 43 525 35 446 b 114 0 35 301 108 21 l 733 0 b 1049 114 735 0 1028 106 l 1265 638 l 1119 1178 l 740 1389 l 78 1389 z "},"e":{"ha":1038,"x_min":0,"x_max":0,"o":"m 35 -43 l 1010 -1 l 940 360 l 468 263 l 457 558 l 807 578 l 746 874 l 450 815 l 439 1111 l 943 1056 l 999 1389 l 65 1375 z "},"f":{"ha":1100,"x_min":0,"x_max":0,"o":"m 96 -28 l 525 0 l 431 389 l 931 358 l 911 732 l 447 663 l 563 1099 l 1003 1013 l 1072 1374 l 181 1389 b 181 1385 181 1386 181 1386 l 74 839 b 21 567 53 733 21 675 b 46 368 21 489 36 446 z "},"g":{"ha":1454,"x_min":0,"x_max":0,"o":"m 1233 1040 l 1286 1360 l 544 1403 l 28 1146 l 76 246 l 529 -28 l 1072 6 l 1426 404 l 1281 844 l 657 881 l 697 538 l 1010 565 l 1019 447 l 732 265 l 467 471 l 514 1033 b 728 1075 535 1038 718 1075 b 896 1064 793 1075 831 1068 z "},"h":{"ha":1203,"x_min":0,"x_max":0,"o":"m 432 38 l 444 389 l 761 406 l 801 -42 l 1168 38 l 1103 1375 l 674 1375 l 738 663 l 453 617 l 478 1306 l 35 1375 l 65 -42 z "},"i":{"ha":513,"x_min":0,"x_max":0,"o":"m 432 1296 l 65 1375 l 35 -42 l 478 28 z "},"j":{"ha":953,"x_min":0,"x_max":0,"o":"m 443 1389 l 496 303 l 83 538 l 28 125 l 482 -25 l 867 97 l 925 1319 z "},"k":{"ha":1286,"x_min":0,"x_max":0,"o":"m 28 0 l 468 69 l 461 432 l 507 479 l 800 0 l 1258 99 l 719 693 l 1258 1349 l 800 1389 l 450 914 l 440 1389 l 97 1389 z "},"l":{"ha":918,"x_min":0,"x_max":0,"o":"m 49 1389 l 35 42 l 890 0 l 867 431 l 410 308 l 447 1347 z "},"m":{"ha":1914,"x_min":0,"x_max":0,"o":"m 35 15 l 521 -14 l 631 975 l 811 0 l 1133 63 l 1354 903 l 1376 0 l 1879 83 l 1681 1283 l 1257 1389 l 989 379 l 829 1336 l 296 1390 z "},"n":{"ha":1263,"x_min":0,"x_max":0,"o":"m 564 1347 l 65 1375 l 35 -42 l 478 28 l 442 863 l 718 -22 l 715 -28 l 719 -28 l 719 -29 l 721 -28 l 1228 42 l 1182 1393 l 788 1347 l 851 324 z "},"o":{"ha":1599,"x_min":0,"x_max":0,"o":"m 522 999 l 1024 1042 l 1133 807 l 1126 586 l 782 336 l 511 615 z m 740 1460 l 207 1251 l 28 618 l 346 46 l 949 -3 l 1472 225 l 1571 876 l 1272 1332 z "},"p":{"ha":1189,"x_min":0,"x_max":0,"o":"m 397 1117 l 731 1101 l 797 890 l 453 635 l 453 631 z m 517 67 l 482 372 l 1117 731 l 1161 1042 l 976 1368 l 568 1390 b 364 1401 489 1394 443 1401 b 251 1388 319 1401 296 1393 l 28 1360 l 78 13 z "},"q":{"ha":1561,"x_min":0,"x_max":0,"o":"m 861 1031 l 1089 792 l 1035 499 l 813 764 l 582 614 l 732 358 l 457 447 l 499 972 z m 703 1460 l 231 1249 l 28 621 l 308 46 l 911 -3 l 1035 -265 l 1364 -96 l 1271 181 l 1396 307 l 1533 876 l 1235 1332 z "},"r":{"ha":1363,"x_min":0,"x_max":0,"o":"m 28 28 l 471 -28 l 435 1103 l 765 1060 l 815 844 l 503 565 l 903 8 l 1335 110 l 936 610 l 1121 660 l 1246 972 l 1032 1307 l 628 1361 b 425 1389 549 1372 504 1389 b 86 1375 313 1389 199 1379 z "},"s":{"ha":1222,"x_min":0,"x_max":0,"o":"m 1056 999 l 1147 1332 l 571 1417 l 181 1213 l 167 675 l 742 528 l 767 343 l 617 258 l 124 475 l 28 71 l 488 -56 l 1021 14 l 1194 343 l 1065 817 l 525 875 l 569 1083 l 739 1083 b 1056 999 742 1083 1033 1004 z "},"t":{"ha":1058,"x_min":0,"x_max":0,"o":"m 14 1122 l 328 1101 l 303 -42 l 746 28 l 708 1075 l 989 1056 l 1044 1361 l 14 1403 z "},"u":{"ha":1267,"x_min":0,"x_max":0,"o":"m 804 1360 l 828 890 b 840 656 833 799 840 747 b 772 361 840 650 778 385 l 518 375 l 460 449 l 464 1394 l 35 1319 l 58 201 l 517 0 l 821 0 l 1169 225 l 1239 1389 z "},"v":{"ha":1522,"x_min":0,"x_max":0,"o":"m 21 1242 l 550 -14 b 806 -6 628 -11 731 -14 b 1032 42 872 3 964 28 l 1501 1339 l 1032 1383 l 765 267 l 464 1383 z "},"w":{"ha":1903,"x_min":0,"x_max":0,"o":"m 28 1361 l 289 -14 l 825 39 l 985 524 l 1253 -14 l 1676 92 l 1875 1292 l 1372 1375 l 1350 472 l 1129 840 l 807 903 l 626 400 l 517 1389 z "},"x":{"ha":1460,"x_min":0,"x_max":0,"o":"m 504 1389 l 21 1375 l 431 765 l 31 17 l 460 39 l 700 510 l 996 7 l 1439 76 l 972 769 l 1369 1346 l 915 1389 l 719 990 z "},"y":{"ha":1439,"x_min":0,"x_max":0,"o":"m 21 1242 l 558 492 l 419 0 l 915 18 l 885 414 l 1418 1339 l 949 1383 l 738 697 l 464 1383 z "},"z":{"ha":1179,"x_min":0,"x_max":0,"o":"m 1013 1122 l 1013 1403 l 51 1361 l 107 1056 l 574 1090 l 21 42 l 1151 3 l 1128 433 l 494 325 l 1011 1122 z "},"{":{"ha":775,"x_min":0,"x_max":0,"o":"m 243 -347 l 714 -347 l 747 -67 l 560 -78 l 540 371 b 531 594 536 458 531 507 b 540 844 531 692 536 747 l 560 1343 l 700 1343 l 714 1576 l 243 1583 l 232 849 l 28 844 l 39 531 l 231 531 z "},"|":{"ha":414,"x_min":0,"x_max":0,"o":"m 28 -347 l 386 -347 l 386 1472 l 28 1472 z "},"}":{"ha":775,"x_min":0,"x_max":0,"o":"m 532 -347 l 544 531 l 736 531 l 747 844 l 543 849 l 532 1583 l 61 1576 l 75 1343 l 215 1343 l 235 844 b 244 594 239 747 244 692 b 235 371 244 507 239 458 l 215 -78 l 28 -67 l 61 -347 z "},"~":{"ha":781,"x_min":0,"x_max":0,"o":"m 224 933 l 299 1039 l 485 933 l 613 943 l 753 1144 l 569 1178 l 486 1083 l 336 1182 l 178 1161 l 28 965 z "},"¡":{"ha":510,"x_min":0,"x_max":0,"o":"m 68 1081 l 63 735 l 422 738 l 428 1083 z m 111 583 l 28 -346 l 482 -346 l 385 583 z "},"¢":{"ha":1214,"x_min":0,"x_max":0,"o":"m 1060 999 l 1151 1332 l 797 1371 l 804 1583 l 501 1583 l 497 1326 l 35 1118 l 56 232 l 497 8 l 501 -347 l 804 -347 l 794 3 l 1179 163 l 1042 508 l 740 343 l 382 543 l 453 972 l 735 1075 z "},"£":{"ha":1118,"x_min":0,"x_max":0,"o":"m 14 776 l 68 550 l 151 561 b 76 349 128 490 101 419 b 60 303 71 333 61 319 b 54 42 56 217 56 128 l 1090 0 l 1068 407 l 408 303 b 510 608 451 401 485 504 l 933 665 l 925 856 l 550 824 b 601 1218 569 954 585 1086 l 663 1254 l 813 1113 l 1056 1285 l 781 1486 l 406 1446 l 283 1286 b 218 794 276 1121 257 956 z "},"¤":{"ha":1396,"x_min":0,"x_max":0,"o":"m 525 911 l 900 944 l 982 763 l 978 592 l 719 399 l 517 614 z m 251 -35 l 428 171 l 844 136 l 954 186 l 1144 -35 l 1368 153 l 1229 310 l 1236 313 l 1310 817 l 1171 1036 l 1368 1267 l 1161 1435 l 956 1201 l 689 1268 l 463 1176 l 235 1435 l 28 1267 l 258 997 l 156 617 l 263 418 l 28 153 z "},"¥":{"ha":1439,"x_min":0,"x_max":0,"o":"m 1192 188 l 1164 406 l 903 401 l 899 499 l 1178 507 l 1164 683 l 940 688 l 1425 1339 l 956 1383 l 744 878 l 471 1383 l 28 1242 l 565 700 l 564 693 l 290 697 l 263 479 l 524 488 l 506 396 l 263 392 l 249 215 l 468 208 l 426 0 l 922 18 l 914 196 z "},"¦":{"ha":386,"x_min":0,"x_max":0,"o":"m 344 743 l 358 1472 l 28 1472 l 56 746 z m 42 436 l 28 -347 l 358 -347 l 331 433 z "},"§":{"ha":1131,"x_min":0,"x_max":0,"o":"m 356 578 l 679 663 l 806 638 l 850 499 l 779 425 b 479 453 679 435 578 440 l 317 471 z m 1061 1343 l 543 1444 l 113 1267 l 100 775 l 286 744 l 113 644 l 100 261 l 797 149 l 850 -15 l 779 -89 l 485 -61 l 106 74 l 28 -251 b 485 -361 63 -260 478 -361 b 668 -342 557 -361 597 -349 l 1036 -301 b 1103 -15 1042 -279 1103 -21 b 1093 118 1103 36 1097 65 l 1074 383 l 1003 392 l 1103 499 l 1074 897 l 317 985 l 356 1126 l 690 1154 l 981 1053 z "},"¨":{"ha":746,"x_min":0,"x_max":0,"o":"m 33 1636 l 28 1371 l 335 1374 l 339 1639 z m 411 1636 l 406 1371 l 714 1374 l 718 1639 z "},"©":{"ha":1668,"x_min":0,"x_max":0,"o":"m 428 1125 l 1110 1250 l 1415 753 l 1206 256 l 621 201 l 350 481 z m 1160 1090 l 849 1124 l 488 965 l 500 447 l 849 276 l 1176 407 l 1094 610 l 913 513 l 717 629 l 760 881 l 910 940 l 1106 896 z m 740 1460 l 207 1251 l 28 618 l 346 4 l 1018 -44 l 1542 225 l 1640 876 l 1342 1360 z "},"ª":{"ha":792,"x_min":0,"x_max":0,"o":"m 375 1446 l 518 1471 l 475 1233 l 296 1090 z m 610 643 l 610 793 l 114 803 l 114 635 z m 668 1076 l 733 1614 l 511 1679 l 188 1556 l 56 1049 l 247 869 l 431 985 l 421 925 l 668 832 l 747 1051 z "},"«":{"ha":1010,"x_min":0,"x_max":0,"o":"m 28 517 l 28 300 l 454 -6 l 510 225 l 203 411 l 510 606 l 413 808 z m 500 517 l 500 300 l 926 -6 l 982 225 l 675 411 l 982 606 l 885 808 z "},"¬":{"ha":972,"x_min":0,"x_max":0,"o":"m 28 825 l 28 593 l 733 604 l 736 358 l 933 354 l 944 811 z "},"®":{"ha":1668,"x_min":0,"x_max":0,"o":"m 428 1125 l 1110 1250 l 1415 753 l 1206 256 l 621 201 l 350 481 z m 740 1460 l 207 1251 l 28 618 l 346 4 l 1018 -44 l 1542 225 l 1640 876 l 1342 1360 z m 764 344 l 744 963 l 925 939 l 951 821 l 781 668 l 1000 364 l 1236 419 l 1018 693 l 1119 719 l 1188 890 l 1071 1074 l 850 1103 b 739 1118 807 1110 782 1118 b 553 1111 678 1118 614 1114 l 521 374 z "},"¯":{"ha":694,"x_min":0,"x_max":0,"o":"m -144 1728 l -144 1454 l 842 1468 l 856 1714 z "},"°":{"ha":722,"x_min":0,"x_max":0,"o":"m 285 1290 l 440 1329 l 507 1210 l 454 1088 l 311 1071 l 258 1119 z m 317 1489 l 125 1376 l 61 1164 l 218 915 l 460 900 l 647 1033 l 682 1250 l 532 1456 z "},"±":{"ha":944,"x_min":0,"x_max":0,"o":"m 28 676 l 351 682 l 336 340 l 610 340 l 604 686 l 917 690 l 917 908 l 601 924 l 596 1258 l 378 1258 l 363 935 l 28 950 z m 28 -18 l 917 -4 l 917 214 l 28 256 z "},"²":{"ha":767,"x_min":0,"x_max":0,"o":"m 624 1692 l 303 1775 l 38 1617 l 103 1389 l 294 1554 l 424 1469 l 14 1053 l 124 915 l 679 933 l 711 1156 l 278 1093 l 658 1390 z "},"³":{"ha":715,"x_min":0,"x_max":0,"o":"m 613 1708 l 292 1790 l 1 1699 l 67 1471 l 283 1569 l 421 1539 l 336 1450 l 108 1392 l 108 1293 l 421 1229 l 326 1131 l 90 1213 l 46 976 l 447 907 l 686 1068 l 671 1279 l 496 1369 l 647 1531 z "},"´":{"ha":461,"x_min":0,"x_max":0,"o":"m 28 1256 l 192 1256 l 433 1507 l 236 1550 z "},"¶":{"ha":1085,"x_min":0,"x_max":0,"o":"m 1032 -261 l 1050 1360 l 826 1388 b 714 1401 782 1393 758 1401 b 547 1390 649 1401 613 1394 l 213 1368 l 28 1042 l 72 731 l 472 460 l 421 -264 l 665 -251 l 750 1138 l 831 1138 l 793 -236 z "},"·":{"ha":474,"x_min":0,"x_max":0,"o":"m 92 644 l 446 703 l 382 1043 l 28 985 z "},"¸":{"ha":410,"x_min":0,"x_max":0,"o":"m 96 -314 l 231 -332 l 331 -285 l 382 -217 l 356 -90 l 244 -53 l 267 53 l 133 72 l 94 -99 l 192 -104 l 222 -194 l 125 -232 l 32 -149 l 28 -193 z "},"¹":{"ha":486,"x_min":0,"x_max":0,"o":"m 394 1697 l 225 1753 l 47 1728 l 64 1514 l 175 1547 l 139 918 l 407 946 z "},"º":{"ha":754,"x_min":0,"x_max":0,"o":"m 261 1250 l 346 1446 l 489 1471 l 533 1229 l 332 1094 z m 674 660 l 674 792 l 85 803 l 85 635 z m 314 1679 l 107 1542 l 74 1085 l 242 892 l 513 953 l 707 1161 l 693 1514 l 572 1653 z "},"»":{"ha":1010,"x_min":0,"x_max":0,"o":"m 982 517 l 597 808 l 500 606 l 807 411 l 500 225 l 556 -6 l 982 300 z m 510 517 l 125 808 l 28 606 l 335 411 l 28 225 l 83 -6 l 510 300 z "},"¼":{"ha":1801,"x_min":0,"x_max":0,"o":"m 525 1486 l 354 1542 l 163 1517 l 179 1304 l 301 1296 l 256 707 l 536 736 z m 163 -108 l 453 -201 l 1421 1417 l 1181 1499 z m 1589 731 l 1378 708 l 1354 290 l 1228 297 l 1278 708 l 1011 679 l 997 171 l 1346 119 l 1333 -124 l 1600 -96 z "},"½":{"ha":1829,"x_min":0,"x_max":0,"o":"m 525 1486 l 354 1542 l 163 1517 l 179 1304 l 301 1296 l 256 707 l 536 736 z m 163 -108 l 453 -201 l 1421 1417 l 1181 1499 z m 1633 713 l 1285 796 l 1019 638 l 1085 410 l 1276 533 l 1406 490 l 996 72 l 1106 -64 l 1689 -46 l 1721 176 l 1315 114 l 1668 411 z "},"¾":{"ha":1881,"x_min":0,"x_max":0,"o":"m 728 1446 l 379 1528 l 89 1436 l 154 1208 l 371 1307 l 507 1276 l 424 1188 l 196 1129 l 196 1031 l 508 967 l 414 868 l 178 950 l 132 714 l 535 644 l 801 806 l 786 1017 l 611 1107 l 763 1268 z m 274 -108 l 564 -201 l 1532 1417 l 1292 1499 z m 1700 731 l 1489 708 l 1465 290 l 1339 297 l 1389 708 l 1122 679 l 1108 171 l 1457 119 l 1444 -124 l 1711 -96 z "},"¿":{"ha":1039,"x_min":0,"x_max":0,"o":"m 807 1031 l 460 1124 l 378 788 l 725 694 z m 129 -350 l 611 -414 l 1011 -261 l 903 128 l 625 -106 l 422 -121 l 425 146 l 726 278 l 754 594 l 426 594 l 425 486 l 189 376 l 28 71 z "},"À":{"ha":1494,"x_min":0,"x_max":0,"o":"m 765 1103 l 879 596 l 632 608 z m 464 -14 l 574 390 l 939 331 l 1004 42 l 1474 86 l 1032 1328 b 806 1375 964 1342 872 1367 b 550 1383 731 1383 628 1381 l 21 128 z m 742 1828 l 544 1785 l 786 1533 l 950 1533 z "},"Á":{"ha":1494,"x_min":0,"x_max":0,"o":"m 765 1103 l 879 596 l 632 608 z m 464 -14 l 574 390 l 939 331 l 1004 42 l 1474 86 l 1032 1328 b 806 1375 964 1342 872 1367 b 550 1383 731 1383 628 1381 l 21 128 z m 708 1533 l 950 1785 l 753 1828 l 544 1533 z "},"Â":{"ha":1494,"x_min":0,"x_max":0,"o":"m 765 1103 l 879 596 l 632 608 z m 464 -14 l 574 390 l 939 331 l 1004 42 l 1474 86 l 1032 1328 b 806 1375 964 1342 872 1367 b 550 1383 731 1383 628 1381 l 21 128 z m 419 1479 l 611 1479 l 728 1567 l 885 1479 l 1076 1479 l 775 1764 l 664 1735 z "},"Ã":{"ha":1494,"x_min":0,"x_max":0,"o":"m 765 1103 l 879 596 l 632 608 z m 464 -14 l 574 390 l 939 331 l 1004 42 l 1474 86 l 1032 1328 b 806 1375 964 1342 872 1367 b 550 1383 731 1383 628 1381 l 21 128 z m 628 1581 l 842 1475 l 997 1485 l 1082 1686 l 899 1719 l 871 1625 l 693 1724 l 507 1703 l 413 1507 l 608 1475 z "},"Ä":{"ha":1494,"x_min":0,"x_max":0,"o":"m 765 1103 l 879 596 l 632 608 z m 464 -14 l 574 390 l 939 331 l 1004 42 l 1474 86 l 1032 1328 b 806 1375 964 1342 872 1367 b 550 1383 731 1383 628 1381 l 21 128 z m 403 1482 l 710 1485 l 714 1750 l 408 1747 z m 781 1482 l 1089 1485 l 1093 1750 l 786 1747 z "},"Å":{"ha":1494,"x_min":0,"x_max":0,"o":"m 765 1103 l 879 596 l 632 608 z m 721 1585 l 818 1610 l 860 1535 l 826 1458 l 738 1447 l 704 1478 z m 740 1710 l 621 1639 l 581 1506 l 660 1379 l 550 1383 l 21 128 l 464 -14 l 574 390 l 939 331 l 1004 42 l 1474 86 l 1032 1328 l 863 1363 l 947 1424 l 969 1560 l 875 1689 z "},"Æ":{"ha":1924,"x_min":0,"x_max":0,"o":"m 911 1103 l 946 1132 l 935 600 l 718 611 z m 471 -14 l 636 404 l 929 357 l 921 -43 l 1896 -1 l 1826 360 l 1354 263 l 1343 558 l 1693 578 l 1632 874 l 1336 815 l 1325 1111 l 1829 1056 l 1885 1389 b 951 1375 1574 1385 1263 1375 b 696 1383 867 1375 781 1381 l 28 128 z "},"Ç":{"ha":1207,"x_min":0,"x_max":0,"o":"m 494 -342 l 629 -360 l 729 -312 l 781 -244 l 754 -118 l 643 -81 l 649 -57 l 1179 163 l 1042 508 l 740 343 l 438 543 l 508 972 l 735 1075 l 1060 999 l 1151 1332 l 635 1389 l 35 1118 l 56 232 l 511 0 l 493 -126 l 590 -132 l 621 -222 l 524 -260 l 431 -176 l 426 -221 z "},"È":{"ha":1031,"x_min":0,"x_max":0,"o":"m 676 1533 l 468 1828 l 271 1785 l 513 1533 z m 28 -43 l 1003 -1 l 933 360 l 461 263 l 450 558 l 800 578 l 739 874 l 443 815 l 432 1111 l 936 1056 l 992 1389 l 58 1375 z "},"É":{"ha":1031,"x_min":0,"x_max":0,"o":"m 313 1533 l 476 1533 l 718 1785 l 521 1828 z m 28 -43 l 1003 -1 l 933 360 l 461 263 l 450 558 l 800 578 l 739 874 l 443 815 l 432 1111 l 936 1056 l 992 1389 l 58 1375 z "},"Ê":{"ha":1031,"x_min":0,"x_max":0,"o":"m 432 1735 l 188 1479 l 379 1479 l 496 1567 l 653 1479 l 844 1479 l 543 1764 z m 28 -43 l 1003 -1 l 933 360 l 461 263 l 450 558 l 800 578 l 739 874 l 443 815 l 432 1111 l 936 1056 l 992 1389 l 58 1375 z "},"Ë":{"ha":1031,"x_min":0,"x_max":0,"o":"m 176 1747 l 171 1482 l 478 1485 l 482 1750 z m 554 1747 l 549 1482 l 857 1485 l 861 1750 z m 28 -43 l 1003 -1 l 933 360 l 461 263 l 450 558 l 800 578 l 739 874 l 443 815 l 432 1111 l 936 1056 l 992 1389 l 58 1375 z "},"Ì":{"ha":499,"x_min":0,"x_max":0,"o":"m 453 1533 l 244 1828 l 47 1785 l 289 1533 z m 425 1296 l 58 1375 l 28 -42 l 471 28 z "},"Í":{"ha":499,"x_min":0,"x_max":0,"o":"m 47 1533 l 211 1533 l 453 1785 l 256 1828 z m 425 1296 l 58 1375 l 28 -42 l 471 28 z "},"Î":{"ha":499,"x_min":0,"x_max":0,"o":"m 165 1735 l -79 1479 l 113 1479 l 229 1567 l 386 1479 l 578 1479 l 276 1764 z m 425 1296 l 58 1375 l 28 -42 l 471 28 z "},"Ï":{"ha":746,"x_min":0,"x_max":0,"o":"m 33 1747 l 28 1482 l 335 1485 l 339 1750 z m 411 1747 l 406 1482 l 714 1485 l 718 1750 z m 549 1296 l 182 1375 l 151 -42 l 594 28 z "},"Ð":{"ha":1342,"x_min":0,"x_max":0,"o":"m 664 1076 l 893 893 l 921 535 l 708 329 l 503 315 l 485 660 l 639 663 l 639 908 l 472 913 l 464 1071 z m 97 650 b 83 304 93 536 83 419 b 163 0 83 301 157 21 l 782 0 b 1097 114 783 0 1076 106 l 1314 638 l 1168 1178 l 789 1389 l 126 1389 l 108 921 l 14 922 l 14 649 z "},"Ñ":{"ha":1249,"x_min":0,"x_max":0,"o":"m 486 1475 l 506 1581 l 719 1475 l 875 1485 l 960 1686 l 776 1719 l 749 1625 l 571 1724 l 385 1703 l 290 1507 z m 557 1347 l 58 1375 l 28 -42 l 471 28 l 435 863 l 711 -22 l 708 -28 l 713 -28 l 713 -29 l 714 -28 l 1221 42 l 1175 1393 l 781 1347 l 844 324 z "},"Ò":{"ha":1599,"x_min":0,"x_max":0,"o":"m 522 999 l 1024 1042 l 1133 807 l 1126 586 l 782 336 l 511 615 z m 740 1460 l 207 1251 l 28 618 l 346 46 l 949 -3 l 1472 225 l 1571 876 l 1272 1332 z m 779 1828 l 582 1785 l 824 1533 l 988 1533 z "},"Ó":{"ha":1599,"x_min":0,"x_max":0,"o":"m 522 999 l 1024 1042 l 1133 807 l 1126 586 l 782 336 l 511 615 z m 740 1460 l 207 1251 l 28 618 l 346 46 l 949 -3 l 1472 225 l 1571 876 l 1272 1332 z m 746 1533 l 988 1785 l 790 1828 l 582 1533 z "},"Ô":{"ha":1599,"x_min":0,"x_max":0,"o":"m 522 999 l 1024 1042 l 1133 807 l 1126 586 l 782 336 l 511 615 z m 740 1460 l 207 1251 l 28 618 l 346 46 l 949 -3 l 1472 225 l 1571 876 l 1272 1332 z m 456 1479 l 647 1479 l 764 1567 l 921 1479 l 1113 1479 l 811 1764 l 700 1735 z "},"Õ":{"ha":1599,"x_min":0,"x_max":0,"o":"m 522 999 l 1024 1042 l 1133 807 l 1126 586 l 782 336 l 511 615 z m 740 1460 l 207 1251 l 28 618 l 346 46 l 949 -3 l 1472 225 l 1571 876 l 1272 1332 z m 665 1581 l 879 1475 l 1035 1485 l 1119 1686 l 936 1719 l 908 1625 l 731 1724 l 544 1703 l 450 1507 l 646 1475 z "},"Ö":{"ha":1599,"x_min":0,"x_max":0,"o":"m 522 999 l 1024 1042 l 1133 807 l 1126 586 l 782 336 l 511 615 z m 740 1460 l 207 1251 l 28 618 l 346 46 l 949 -3 l 1472 225 l 1571 876 l 1272 1332 z m 439 1482 l 746 1485 l 750 1750 l 444 1747 z m 817 1482 l 1125 1485 l 1129 1750 l 822 1747 z "},"×":{"ha":889,"x_min":0,"x_max":0,"o":"m 850 332 l 576 703 l 861 1111 l 621 1161 l 439 889 l 228 1175 l 28 1103 l 313 700 l 68 333 l 256 243 l 444 514 l 607 285 z "},"Ø":{"ha":1654,"x_min":0,"x_max":0,"o":"m 551 999 l 1029 1040 l 543 613 l 540 615 z m 743 407 l 1163 785 l 1156 586 l 811 336 z m 204 -79 l 364 65 l 375 46 l 978 -3 l 1501 225 l 1600 876 l 1475 1067 l 1633 1210 l 1463 1421 l 1324 1299 l 1301 1332 l 769 1460 l 236 1251 l 57 618 l 219 326 l 21 153 z "},"Ù":{"ha":1267,"x_min":0,"x_max":0,"o":"m 763 1533 l 554 1828 l 357 1785 l 599 1533 z m 804 1360 l 828 890 b 840 656 833 799 840 747 b 772 361 840 650 778 385 l 518 375 l 460 449 l 464 1394 l 35 1319 l 58 201 l 517 0 l 821 0 l 1169 225 l 1239 1389 z "},"Ú":{"ha":1267,"x_min":0,"x_max":0,"o":"m 538 1533 l 701 1533 l 943 1785 l 746 1828 z m 804 1360 l 828 890 b 840 656 833 799 840 747 b 772 361 840 650 778 385 l 518 375 l 460 449 l 464 1394 l 35 1319 l 58 201 l 517 0 l 821 0 l 1169 225 l 1239 1389 z "},"Û":{"ha":1267,"x_min":0,"x_max":0,"o":"m 544 1735 l 300 1479 l 492 1479 l 608 1567 l 765 1479 l 957 1479 l 656 1764 z m 804 1360 l 828 890 b 840 656 833 799 840 747 b 772 361 840 650 778 385 l 518 375 l 460 449 l 464 1394 l 35 1319 l 58 201 l 517 0 l 821 0 l 1169 225 l 1239 1389 z "},"Ü":{"ha":1267,"x_min":0,"x_max":0,"o":"m 289 1747 l 283 1482 l 590 1485 l 594 1750 z m 667 1747 l 661 1482 l 969 1485 l 974 1750 z m 804 1360 l 828 890 b 840 656 833 799 840 747 b 772 361 840 650 778 385 l 518 375 l 460 449 l 464 1394 l 35 1319 l 58 201 l 517 0 l 821 0 l 1169 225 l 1239 1389 z "},"Ý":{"ha":1425,"x_min":0,"x_max":0,"o":"m 586 1478 l 750 1478 l 992 1729 l 794 1772 z m 14 1242 l 551 492 l 413 0 l 908 18 l 878 414 l 1411 1339 l 942 1383 l 731 697 l 457 1383 z "},"Þ":{"ha":1194,"x_min":0,"x_max":0,"o":"m 419 921 l 707 907 l 774 696 l 471 472 z m 517 67 l 501 203 l 1093 536 l 1138 847 l 953 1174 l 386 1206 l 364 1401 l 28 1360 l 78 13 z "},"ß":{"ha":1167,"x_min":0,"x_max":0,"o":"m 28 28 l 471 0 l 435 1103 l 626 1088 l 704 972 l 676 831 l 522 740 l 561 594 l 729 588 l 811 367 b 567 272 731 333 650 299 l 610 0 l 757 0 b 1103 85 761 0 1078 79 l 1146 561 l 914 749 l 1089 901 l 956 1290 b 578 1389 929 1297 581 1389 b 71 1388 408 1389 240 1388 z "},"à":{"ha":1494,"x_min":0,"x_max":0,"o":"m 765 1103 l 879 596 l 632 608 z m 464 -14 l 574 390 l 939 331 l 1004 42 l 1474 86 l 1032 1328 b 806 1375 964 1342 872 1367 b 550 1383 731 1383 628 1381 l 21 128 z m 742 1828 l 544 1785 l 786 1533 l 950 1533 z "},"á":{"ha":1494,"x_min":0,"x_max":0,"o":"m 765 1103 l 879 596 l 632 608 z m 464 -14 l 574 390 l 939 331 l 1004 42 l 1474 86 l 1032 1328 b 806 1375 964 1342 872 1367 b 550 1383 731 1383 628 1381 l 21 128 z m 708 1533 l 950 1785 l 753 1828 l 544 1533 z "},"â":{"ha":1494,"x_min":0,"x_max":0,"o":"m 765 1103 l 879 596 l 632 608 z m 464 -14 l 574 390 l 939 331 l 1004 42 l 1474 86 l 1032 1328 b 806 1375 964 1342 872 1367 b 550 1383 731 1383 628 1381 l 21 128 z m 419 1479 l 611 1479 l 728 1567 l 885 1479 l 1076 1479 l 775 1764 l 664 1735 z "},"ã":{"ha":1494,"x_min":0,"x_max":0,"o":"m 765 1103 l 879 596 l 632 608 z m 464 -14 l 574 390 l 939 331 l 1004 42 l 1474 86 l 1032 1328 b 806 1375 964 1342 872 1367 b 550 1383 731 1383 628 1381 l 21 128 z m 628 1581 l 842 1475 l 997 1485 l 1082 1686 l 899 1719 l 871 1625 l 693 1724 l 507 1703 l 413 1507 l 608 1475 z "},"ä":{"ha":1494,"x_min":0,"x_max":0,"o":"m 765 1103 l 879 596 l 632 608 z m 464 -14 l 574 390 l 939 331 l 1004 42 l 1474 86 l 1032 1328 b 806 1375 964 1342 872 1367 b 550 1383 731 1383 628 1381 l 21 128 z m 403 1482 l 710 1485 l 714 1750 l 408 1747 z m 781 1482 l 1089 1485 l 1093 1750 l 786 1747 z "},"å":{"ha":1494,"x_min":0,"x_max":0,"o":"m 765 1103 l 879 596 l 632 608 z m 721 1585 l 818 1610 l 860 1535 l 826 1458 l 738 1447 l 704 1478 z m 740 1710 l 621 1639 l 581 1506 l 660 1379 l 550 1383 l 21 128 l 464 -14 l 574 390 l 939 331 l 1004 42 l 1474 86 l 1032 1328 l 863 1363 l 947 1424 l 969 1560 l 875 1689 z "},"æ":{"ha":1924,"x_min":0,"x_max":0,"o":"m 911 1103 l 946 1132 l 935 600 l 718 611 z m 471 -14 l 636 404 l 929 357 l 921 -43 l 1896 -1 l 1826 360 l 1354 263 l 1343 558 l 1693 578 l 1632 874 l 1336 815 l 1325 1111 l 1829 1056 l 1885 1389 b 951 1375 1574 1385 1263 1375 b 696 1383 867 1375 781 1381 l 28 128 z "},"ç":{"ha":1207,"x_min":0,"x_max":0,"o":"m 494 -342 l 629 -360 l 729 -312 l 781 -244 l 754 -118 l 643 -81 l 649 -57 l 1179 163 l 1042 508 l 740 343 l 438 543 l 508 972 l 735 1075 l 1060 999 l 1151 1332 l 635 1389 l 35 1118 l 56 232 l 511 0 l 493 -126 l 590 -132 l 621 -222 l 524 -260 l 431 -176 l 426 -221 z "},"è":{"ha":1031,"x_min":0,"x_max":0,"o":"m 676 1533 l 468 1828 l 271 1785 l 513 1533 z m 28 -43 l 1003 -1 l 933 360 l 461 263 l 450 558 l 800 578 l 739 874 l 443 815 l 432 1111 l 936 1056 l 992 1389 l 58 1375 z "},"é":{"ha":1031,"x_min":0,"x_max":0,"o":"m 313 1533 l 476 1533 l 718 1785 l 521 1828 z m 28 -43 l 1003 -1 l 933 360 l 461 263 l 450 558 l 800 578 l 739 874 l 443 815 l 432 1111 l 936 1056 l 992 1389 l 58 1375 z "},"ê":{"ha":1031,"x_min":0,"x_max":0,"o":"m 432 1735 l 188 1479 l 379 1479 l 496 1567 l 653 1479 l 844 1479 l 543 1764 z m 28 -43 l 1003 -1 l 933 360 l 461 263 l 450 558 l 800 578 l 739 874 l 443 815 l 432 1111 l 936 1056 l 992 1389 l 58 1375 z "},"ë":{"ha":1031,"x_min":0,"x_max":0,"o":"m 176 1747 l 171 1482 l 478 1485 l 482 1750 z m 554 1747 l 549 1482 l 857 1485 l 861 1750 z m 28 -43 l 1003 -1 l 933 360 l 461 263 l 450 558 l 800 578 l 739 874 l 443 815 l 432 1111 l 936 1056 l 992 1389 l 58 1375 z "},"ì":{"ha":499,"x_min":0,"x_max":0,"o":"m 453 1533 l 244 1828 l 47 1785 l 289 1533 z m 425 1296 l 58 1375 l 28 -42 l 471 28 z "},"í":{"ha":499,"x_min":0,"x_max":0,"o":"m 47 1533 l 211 1533 l 453 1785 l 256 1828 z m 425 1296 l 58 1375 l 28 -42 l 471 28 z "},"î":{"ha":499,"x_min":0,"x_max":0,"o":"m 165 1735 l -79 1479 l 113 1479 l 229 1567 l 386 1479 l 578 1479 l 276 1764 z m 425 1296 l 58 1375 l 28 -42 l 471 28 z "},"ï":{"ha":746,"x_min":0,"x_max":0,"o":"m 33 1747 l 28 1482 l 335 1485 l 339 1750 z m 411 1747 l 406 1482 l 714 1485 l 718 1750 z m 549 1296 l 182 1375 l 151 -42 l 594 28 z "},"ð":{"ha":1179,"x_min":0,"x_max":0,"o":"m 318 450 l 500 550 l 701 485 l 717 294 b 517 261 676 288 551 261 l 367 261 z m 668 903 l 685 690 l 644 754 l 246 781 l 28 593 l 46 85 l 479 -43 l 1017 113 l 969 946 l 1150 971 l 1125 1183 l 954 1158 l 775 1411 l 188 1425 l 93 1261 l 647 1156 l 650 1115 l 243 1057 l 267 846 z "},"ñ":{"ha":1249,"x_min":0,"x_max":0,"o":"m 486 1475 l 506 1581 l 719 1475 l 875 1485 l 960 1686 l 776 1719 l 749 1625 l 571 1724 l 385 1703 l 290 1507 z m 557 1347 l 58 1375 l 28 -42 l 471 28 l 435 863 l 711 -22 l 708 -28 l 713 -28 l 713 -29 l 714 -28 l 1221 42 l 1175 1393 l 781 1347 l 844 324 z "},"ò":{"ha":1599,"x_min":0,"x_max":0,"o":"m 522 999 l 1024 1042 l 1133 807 l 1126 586 l 782 336 l 511 615 z m 740 1460 l 207 1251 l 28 618 l 346 46 l 949 -3 l 1472 225 l 1571 876 l 1272 1332 z m 779 1828 l 582 1785 l 824 1533 l 988 1533 z "},"ó":{"ha":1599,"x_min":0,"x_max":0,"o":"m 522 999 l 1024 1042 l 1133 807 l 1126 586 l 782 336 l 511 615 z m 740 1460 l 207 1251 l 28 618 l 346 46 l 949 -3 l 1472 225 l 1571 876 l 1272 1332 z m 746 1533 l 988 1785 l 790 1828 l 582 1533 z "},"ô":{"ha":1599,"x_min":0,"x_max":0,"o":"m 522 999 l 1024 1042 l 1133 807 l 1126 586 l 782 336 l 511 615 z m 740 1460 l 207 1251 l 28 618 l 346 46 l 949 -3 l 1472 225 l 1571 876 l 1272 1332 z m 456 1479 l 647 1479 l 764 1567 l 921 1479 l 1113 1479 l 811 1764 l 700 1735 z "},"õ":{"ha":1599,"x_min":0,"x_max":0,"o":"m 522 999 l 1024 1042 l 1133 807 l 1126 586 l 782 336 l 511 615 z m 740 1460 l 207 1251 l 28 618 l 346 46 l 949 -3 l 1472 225 l 1571 876 l 1272 1332 z m 665 1581 l 879 1475 l 1035 1485 l 1119 1686 l 936 1719 l 908 1625 l 731 1724 l 544 1703 l 450 1507 l 646 1475 z "},"ö":{"ha":1599,"x_min":0,"x_max":0,"o":"m 522 999 l 1024 1042 l 1133 807 l 1126 586 l 782 336 l 511 615 z m 740 1460 l 207 1251 l 28 618 l 346 46 l 949 -3 l 1472 225 l 1571 876 l 1272 1332 z m 439 1482 l 746 1485 l 750 1750 l 444 1747 z m 817 1482 l 1125 1485 l 1129 1750 l 822 1747 z "},"÷":{"ha":917,"x_min":0,"x_max":0,"o":"m 314 936 l 668 994 l 604 1335 l 250 1276 z m 28 579 l 889 593 l 889 811 l 28 853 z m 314 89 l 668 147 l 604 488 l 250 429 z "},"ø":{"ha":1654,"x_min":0,"x_max":0,"o":"m 551 999 l 1029 1040 l 543 613 l 540 615 z m 743 407 l 1163 785 l 1156 586 l 811 336 z m 204 -79 l 364 65 l 375 46 l 978 -3 l 1501 225 l 1600 876 l 1475 1067 l 1633 1210 l 1463 1421 l 1324 1299 l 1301 1332 l 769 1460 l 236 1251 l 57 618 l 219 326 l 21 153 z "},"ù":{"ha":1267,"x_min":0,"x_max":0,"o":"m 763 1533 l 554 1828 l 357 1785 l 599 1533 z m 804 1360 l 828 890 b 840 656 833 799 840 747 b 772 361 840 650 778 385 l 518 375 l 460 449 l 464 1394 l 35 1319 l 58 201 l 517 0 l 821 0 l 1169 225 l 1239 1389 z "},"ú":{"ha":1267,"x_min":0,"x_max":0,"o":"m 538 1533 l 701 1533 l 943 1785 l 746 1828 z m 804 1360 l 828 890 b 840 656 833 799 840 747 b 772 361 840 650 778 385 l 518 375 l 460 449 l 464 1394 l 35 1319 l 58 201 l 517 0 l 821 0 l 1169 225 l 1239 1389 z "},"û":{"ha":1267,"x_min":0,"x_max":0,"o":"m 544 1735 l 300 1479 l 492 1479 l 608 1567 l 765 1479 l 957 1479 l 656 1764 z m 804 1360 l 828 890 b 840 656 833 799 840 747 b 772 361 840 650 778 385 l 518 375 l 460 449 l 464 1394 l 35 1319 l 58 201 l 517 0 l 821 0 l 1169 225 l 1239 1389 z "},"ü":{"ha":1267,"x_min":0,"x_max":0,"o":"m 289 1747 l 283 1482 l 590 1485 l 594 1750 z m 667 1747 l 661 1482 l 969 1485 l 974 1750 z m 804 1360 l 828 890 b 840 656 833 799 840 747 b 772 361 840 650 778 385 l 518 375 l 460 449 l 464 1394 l 35 1319 l 58 201 l 517 0 l 821 0 l 1169 225 l 1239 1389 z "},"ý":{"ha":1425,"x_min":0,"x_max":0,"o":"m 367 1747 l 361 1482 l 668 1485 l 672 1750 z m 744 1747 l 739 1482 l 1047 1485 l 1051 1750 z m 14 1242 l 551 492 l 413 0 l 908 18 l 878 414 l 1411 1339 l 942 1383 l 731 697 l 457 1383 z "},"þ":{"ha":1194,"x_min":0,"x_max":0,"o":"m 419 921 l 707 907 l 774 696 l 471 472 z m 517 67 l 501 203 l 1093 536 l 1138 847 l 953 1174 l 386 1206 l 364 1401 l 28 1360 l 78 13 z "},"ÿ":{"ha":1425,"x_min":0,"x_max":0,"o":"m 586 1478 l 750 1478 l 992 1729 l 794 1772 z m 14 1242 l 551 492 l 413 0 l 908 18 l 878 414 l 1411 1339 l 942 1383 l 731 697 l 457 1383 z "},"Đ":{"ha":1342,"x_min":0,"x_max":0,"o":"m 664 1076 l 893 893 l 921 535 l 708 329 l 503 315 l 485 658 l 667 663 l 667 908 l 472 913 l 464 1071 z m 97 650 b 83 304 93 536 83 419 b 163 0 83 301 157 21 l 782 0 b 1097 114 783 0 1076 106 l 1314 638 l 1168 1178 l 789 1389 l 126 1389 l 108 921 l 14 922 l 14 649 z "},"đ":{"ha":1342,"x_min":0,"x_max":0,"o":"m 664 1076 l 893 893 l 921 535 l 708 329 l 503 315 l 485 658 l 667 663 l 667 908 l 472 913 l 464 1071 z m 97 650 b 83 304 93 536 83 419 b 163 0 83 301 157 21 l 782 0 b 1097 114 783 0 1076 106 l 1314 638 l 1168 1178 l 789 1389 l 126 1389 l 108 921 l 14 922 l 14 649 z "},"ı":{"ha":471,"x_min":0,"x_max":0,"o":"m 397 907 l 58 986 l 28 -42 l 443 28 z "},"Ł":{"ha":1069,"x_min":0,"x_max":0,"o":"m 14 638 l 121 432 l 190 469 l 186 42 l 1042 0 l 1018 431 l 561 308 l 575 679 l 883 847 l 803 1035 l 583 924 l 599 1347 l 200 1389 l 193 728 z "},"ł":{"ha":1069,"x_min":0,"x_max":0,"o":"m 14 638 l 121 432 l 190 469 l 186 42 l 1042 0 l 1018 431 l 561 308 l 575 679 l 883 847 l 803 1035 l 583 924 l 599 1347 l 200 1389 l 193 728 z "},"Œ":{"ha":2115,"x_min":0,"x_max":0,"o":"m 522 999 l 1024 1042 l 1131 813 l 1126 586 l 782 336 l 511 615 z m 949 -3 l 1115 69 l 1113 -43 l 2088 -1 l 2018 360 l 1546 263 l 1535 558 l 1885 578 l 1824 874 l 1528 815 l 1517 1097 l 2014 1024 l 2076 1389 l 1143 1375 l 1143 1363 l 740 1460 l 207 1251 l 28 618 l 346 46 z "},"œ":{"ha":2115,"x_min":0,"x_max":0,"o":"m 522 999 l 1024 1042 l 1131 813 l 1126 586 l 782 336 l 511 615 z m 949 -3 l 1115 69 l 1113 -43 l 2088 -1 l 2018 360 l 1546 263 l 1535 558 l 1885 578 l 1824 874 l 1528 815 l 1517 1097 l 2014 1024 l 2076 1389 l 1143 1375 l 1143 1363 l 740 1460 l 207 1251 l 28 618 l 346 46 z "},"Š":{"ha":1208,"x_min":0,"x_max":0,"o":"m 563 1481 l 674 1451 l 975 1736 l 783 1736 l 626 1649 l 510 1736 l 318 1736 z m 1049 999 l 1140 1332 l 564 1417 l 174 1213 l 160 675 l 735 528 l 760 343 l 610 258 l 117 475 l 21 71 l 481 -56 l 1014 14 l 1188 343 l 1058 817 l 518 875 l 563 1083 l 732 1083 b 1049 999 735 1083 1026 1004 z "},"š":{"ha":1208,"x_min":0,"x_max":0,"o":"m 563 1481 l 674 1451 l 975 1736 l 783 1736 l 626 1649 l 510 1736 l 318 1736 z m 1049 999 l 1140 1332 l 564 1417 l 174 1213 l 160 675 l 735 528 l 760 343 l 610 258 l 117 475 l 21 71 l 481 -56 l 1014 14 l 1188 343 l 1058 817 l 518 875 l 563 1083 l 732 1083 b 1049 999 735 1083 1026 1004 z "},"Ÿ":{"ha":1425,"x_min":0,"x_max":0,"o":"m 367 1747 l 361 1482 l 668 1485 l 672 1750 z m 744 1747 l 739 1482 l 1047 1485 l 1051 1750 z m 14 1242 l 551 492 l 413 0 l 908 18 l 878 414 l 1411 1339 l 942 1383 l 731 697 l 457 1383 z "},"Ž":{"ha":1179,"x_min":0,"x_max":0,"o":"m 542 1481 l 653 1451 l 954 1736 l 763 1736 l 606 1649 l 489 1736 l 297 1736 z m 1013 1122 l 1013 1403 l 51 1361 l 107 1056 l 574 1090 l 21 42 l 1151 3 l 1128 433 l 494 325 l 1011 1122 z "},"ž":{"ha":1179,"x_min":0,"x_max":0,"o":"m 542 1481 l 653 1451 l 954 1736 l 763 1736 l 606 1649 l 489 1736 l 297 1736 z m 1013 1122 l 1013 1403 l 51 1361 l 107 1056 l 574 1090 l 21 42 l 1151 3 l 1128 433 l 494 325 l 1011 1122 z "},"ƒ":{"ha":1418,"x_min":0,"x_max":0,"o":"m 357 776 l 411 550 l 542 567 b 458 303 526 510 483 349 b 382 172 435 258 407 215 l 222 296 l 26 97 l 433 -99 l 694 67 b 849 608 769 238 813 426 l 1276 665 l 1268 856 l 888 822 b 944 1218 908 954 928 1086 l 1006 1254 l 1156 1113 l 1399 1285 l 1124 1486 l 749 1446 l 626 1286 b 588 796 619 1122 611 958 z "},"ˆ":{"ha":713,"x_min":0,"x_max":0,"o":"m 272 1457 l 28 1201 l 219 1201 l 336 1289 l 493 1201 l 685 1201 l 383 1486 z "},"ˇ":{"ha":713,"x_min":0,"x_max":0,"o":"m 272 1203 l 383 1174 l 685 1458 l 493 1458 l 336 1371 l 219 1458 l 28 1458 z "},"˘":{"ha":713,"x_min":0,"x_max":0,"o":"m 325 1176 l 547 1228 l 685 1389 l 493 1389 l 417 1324 b 336 1315 392 1321 361 1315 b 264 1331 333 1315 271 1329 l 219 1389 l 28 1389 l 144 1228 z "},"˙":{"ha":475,"x_min":0,"x_max":0,"o":"m 89 1346 l 425 1399 l 364 1710 l 28 1657 z "},"˚":{"ha":417,"x_min":0,"x_max":0,"o":"m 154 1363 l 251 1388 l 293 1313 l 260 1236 l 171 1225 l 138 1256 z m 174 1488 l 54 1417 l 14 1283 l 113 1128 l 264 1118 l 381 1201 l 403 1338 l 308 1467 z "},"˛":{"ha":394,"x_min":0,"x_max":0,"o":"m 261 -315 l 367 -164 l 342 -126 l 240 -194 l 167 -156 b 285 75 208 -81 249 -3 l 186 75 l 14 -122 l 71 -285 z "},"˜":{"ha":754,"x_min":0,"x_max":0,"o":"m 242 933 l 261 1039 l 475 933 l 631 943 l 715 1144 l 532 1178 l 504 1083 l 326 1182 l 140 1161 l 46 965 z "},"˝":{"ha":742,"x_min":0,"x_max":0,"o":"m 308 1256 l 472 1256 l 714 1507 l 517 1550 z m 28 1256 l 192 1256 l 433 1507 l 236 1550 z "},"μ":{"ha":1299,"x_min":0,"x_max":0,"o":"m 850 1360 l 864 414 l 799 332 l 578 347 l 478 449 l 482 1394 l 94 1319 l 107 700 b 114 390 110 579 114 511 b 90 126 114 286 99 229 l 42 -403 l 418 -347 l 440 83 l 576 -14 l 740 -14 l 826 71 l 847 -37 l 1175 1 l 1257 1389 z "},"–":{"ha":819,"x_min":0,"x_max":0,"o":"m 28 825 l 28 593 l 778 607 l 792 811 z "},"—":{"ha":1361,"x_min":0,"x_max":0,"o":"m 28 825 l 28 593 l 1319 607 l 1333 811 z "},"‘":{"ha":424,"x_min":0,"x_max":0,"o":"m 396 1210 l 281 1200 l 328 1551 l 200 1508 l 46 1181 l 28 885 l 396 874 z "},"’":{"ha":424,"x_min":0,"x_max":0,"o":"m 28 1146 l 143 1156 l 96 804 l 224 847 l 378 1175 l 396 1471 l 28 1482 z "},"‚":{"ha":449,"x_min":0,"x_max":0,"o":"m 28 51 l 143 51 l 67 -294 l 197 -262 l 379 51 l 421 344 l 56 386 z "},"“":{"ha":840,"x_min":0,"x_max":0,"o":"m 396 1210 l 281 1200 l 328 1551 l 200 1508 l 46 1181 l 28 885 l 396 874 z m 813 1210 l 697 1200 l 744 1551 l 617 1508 l 463 1181 l 444 885 l 813 874 z "},"”":{"ha":868,"x_min":0,"x_max":0,"o":"m 28 1146 l 143 1156 l 96 804 l 224 847 l 378 1175 l 396 1471 l 28 1482 z m 472 1146 l 588 1156 l 540 804 l 668 847 l 822 1175 l 840 1471 l 472 1482 z "},"„":{"ha":865,"x_min":0,"x_max":0,"o":"m 28 51 l 143 51 l 67 -294 l 197 -262 l 379 51 l 421 344 l 56 386 z m 444 51 l 560 51 l 483 -294 l 614 -262 l 796 51 l 838 344 l 472 386 z "},"†":{"ha":917,"x_min":0,"x_max":0,"o":"m 288 -306 l 590 -306 l 608 853 l 889 857 l 889 1117 l 613 1131 l 618 1472 l 260 1472 l 265 1147 l 28 1158 l 28 843 l 269 847 z "},"‡":{"ha":917,"x_min":0,"x_max":0,"o":"m 288 -306 l 590 -306 l 597 107 l 889 93 l 889 408 l 601 404 l 608 853 l 889 857 l 889 1117 l 613 1131 l 618 1472 l 260 1472 l 265 1147 l 28 1158 l 28 843 l 269 847 l 276 399 l 28 394 l 28 135 l 281 122 z "},"•":{"ha":389,"x_min":0,"x_max":0,"o":"m 28 642 b 181 436 28 547 69 436 b 361 628 289 436 361 522 b 208 846 361 719 319 846 b 28 642 85 846 28 757 z "},"…":{"ha":1421,"x_min":0,"x_max":0,"o":"m 565 -8 l 919 50 l 856 390 l 501 332 z m 1039 -8 l 1393 50 l 1329 390 l 975 332 z m 92 -8 l 446 50 l 382 390 l 28 332 z "},"‰":{"ha":2758,"x_min":0,"x_max":0,"o":"m 1478 632 l 1607 493 l 1613 371 l 1525 139 l 1358 163 l 1307 476 z m 2339 632 l 2468 493 l 2474 371 l 2386 139 l 2219 163 l 2168 476 z m 450 1285 l 579 1146 l 585 1024 l 497 792 l 331 815 l 279 1129 z m 1451 772 l 1125 679 l 1056 343 l 1204 -15 l 1514 -42 l 1756 86 l 1869 447 l 1681 715 z m 2313 772 l 1986 679 l 1917 343 l 2065 -15 l 2375 -42 l 2617 86 l 2731 447 l 2542 715 z m 542 -201 l 1510 1417 l 1269 1499 l 251 -108 z m 424 1425 l 97 1332 l 28 996 l 176 638 l 486 611 l 728 739 l 842 1100 l 653 1368 z "},"‹":{"ha":538,"x_min":0,"x_max":0,"o":"m 28 517 l 28 300 l 454 -6 l 510 225 l 203 411 l 510 606 l 413 808 z "},"›":{"ha":538,"x_min":0,"x_max":0,"o":"m 510 517 l 125 808 l 28 606 l 335 411 l 28 225 l 83 -6 l 510 300 z "},"⁄":{"ha":1314,"x_min":0,"x_max":0,"o":"m 28 -108 l 318 -201 l 1286 1417 l 1046 1499 z "},"€":{"ha":1367,"x_min":0,"x_max":0,"o":"m 1219 999 l 1311 1332 l 836 1389 l 236 1118 l 240 946 l 110 947 l 82 715 l 246 721 l 247 631 l 40 628 l 26 438 l 253 431 l 257 232 l 836 -62 l 1339 163 l 1201 508 l 942 260 l 597 390 l 596 421 l 969 410 l 942 642 l 586 636 l 582 731 l 997 743 l 983 933 l 572 940 l 571 972 l 936 1075 z "},"™":{"ha":1360,"x_min":0,"x_max":0,"o":"m 28 1265 l 175 1254 l 163 694 l 371 729 l 353 1242 l 483 1232 l 510 1382 l 28 1403 z m 469 722 l 697 708 l 747 1193 l 832 715 l 983 746 l 1086 1157 l 1097 715 l 1332 756 l 1239 1344 l 1040 1396 l 915 901 l 840 1369 l 592 1397 z "},"−":{"ha":917,"x_min":0,"x_max":0,"o":"m 28 579 l 889 593 l 889 811 l 28 853 z "},"ﬁ":{"ha":1613,"x_min":0,"x_max":0,"o":"m 96 -28 l 525 0 l 431 389 l 931 358 l 911 732 l 447 663 l 563 1099 l 1003 1013 l 1072 1374 l 181 1389 b 181 1385 181 1386 181 1386 l 74 839 b 21 567 53 733 21 675 b 46 368 21 489 36 446 z m 1532 1296 l 1165 1375 l 1135 -42 l 1578 28 z "},"ﬂ":{"ha":2018,"x_min":0,"x_max":0,"o":"m 96 -28 l 525 0 l 431 389 l 931 358 l 911 732 l 447 663 l 563 1099 l 1003 1013 l 1072 1374 l 181 1389 b 181 1385 181 1386 181 1386 l 74 839 b 21 567 53 733 21 675 b 46 368 21 489 36 446 z m 1149 1389 l 1135 42 l 1990 0 l 1967 431 l 1510 308 l 1547 1347 z "}}}
